<svg xmlns="http://www.w3.org/2000/svg" width="24" height="24"><path fill="currentColor" d="M22.208 15.849c-1.067 1.838-2.931 3.062-5.002 3.37a8.18 8.18 0 00.278-.248l.038-.034a8.16 8.16 0 00.344-.347c.034-.035.066-.072.098-.108a8.288 8.288 0 00.333-.392c.072-.09.14-.182.208-.275l.087-.12c.09-.13.178-.262.26-.397l.006-.01c.085-.138.165-.281.24-.426.022-.04.042-.082.063-.123a8.494 8.494 0 00.217-.467c.045-.107.087-.215.128-.323l.05-.137a8.04 8.04 0 00.149-.462v-.004c.045-.157.084-.316.118-.476l.028-.145a7.296 7.296 0 00.12-.86c.004-.052.01-.103.013-.154.01-.166.017-.333.017-.5 0-.12-.005-.244-.017-.372-.004-.042-.011-.087-.016-.13a5.182 5.182 0 00-.035-.264 5.559 5.559 0 00-.034-.168c-.016-.082-.03-.164-.051-.25-.014-.062-.033-.126-.05-.189-.022-.083-.043-.166-.069-.252-.02-.067-.044-.137-.066-.206-.028-.086-.055-.17-.086-.258-.026-.072-.055-.147-.083-.22a8.096 8.096 0 00-.103-.267c-.031-.077-.066-.156-.1-.234a8.908 8.908 0 00-.12-.276c-.036-.081-.076-.164-.115-.247a16.956 16.956 0 00-.573-1.113 23.062 23.062 0 00-.525-.906 34.817 34.817 0 00-1.021-1.588 41.411 41.411 0 00-.47-.677 53.667 53.667 0 00-.502-.7c-.03-.042-.058-.082-.089-.123 2.504-1.214 5.072-2.155 6.159-2.536.423 2.253 1.86 10.715.173 13.614m-9.733-2.337l-.95.31c.015.045 1.065 3.338.228 6.282a7.066 7.066 0 01-3.03-.779C6.427 18.118 5 15.775 5 13.211 5 11.5 6.48 8.62 9.28 4.886A67.071 67.071 0 0112 1.506a67.16 67.16 0 012.72 3.38C17.52 8.621 19 11.5 19 13.211c0 .64-.089 1.268-.259 1.867a6.923 6.923 0 01-5.927 4.987c.763-3.111-.275-6.355-.34-6.553M1.792 15.85c-1.686-2.899-.25-11.36.173-13.614 1.087.381 3.655 1.322 6.158 2.536-.033.045-.063.089-.096.133L7.8 5.22l-.277.388-.208.298a40.237 40.237 0 00-1.263 1.938l-.208.35c-.05.085-.1.17-.147.253a22.951 22.951 0 00-.49.9c-.04.08-.082.16-.12.238-.052.104-.1.206-.148.308-.036.076-.073.152-.106.226-.046.1-.087.198-.13.296l-.091.216c-.039.095-.074.188-.109.281-.026.07-.054.14-.078.208-.032.091-.06.18-.09.27l-.063.195a7.23 7.23 0 00-.07.26l-.049.181c-.02.088-.036.172-.052.257-.01.054-.024.109-.033.162-.015.09-.025.178-.035.266-.005.042-.012.087-.016.128a4.241 4.241 0 00-.017.372c0 .167.007.334.017.5.003.051.009.103.013.154a7.644 7.644 0 00.12.858l.028.147c.035.16.073.32.117.476l.004.01c.044.154.092.305.145.455l.053.14a7.671 7.671 0 00.343.786c.021.042.041.085.063.126.076.144.155.287.24.425l.01.016c.081.133.167.263.256.391l.087.12a7.924 7.924 0 00.542.669l.097.106c.111.12.226.236.345.348l.034.03c.092.086.186.17.282.252-2.071-.309-3.936-1.534-5.003-3.371M22.906 1.478L22.793.93l-.534.176c-.036.012-3.598 1.19-6.99 2.853A65.597 65.597 0 0012.375.418L12 0l-.374.418A65.266 65.266 0 008.73 3.96C5.338 2.298 1.777 1.12 1.74 1.107L1.208.93l-.114.547C1 1.933-1.206 12.68.925 16.346c1.422 2.447 4.078 3.945 6.904 3.945.184 0 .37-.012.555-.025a8.104 8.104 0 003 .828 5.522 5.522 0 01-1.687 2.116l.606.79a6.616 6.616 0 002.18-2.894 8.116 8.116 0 003.133-.84c.185.013.37.025.555.025 2.826 0 5.482-1.498 6.904-3.945 2.131-3.665-.074-14.413-.169-14.868" fill-rule="evenodd"/></svg>